<?xml version="1.0" encoding="UTF-8" standalone="no"?>
<!DOCTYPE svg PUBLIC "-//W3C//DTD SVG 1.1//EN"
 "http://www.w3.org/Graphics/SVG/1.1/DTD/svg11.dtd">
<!-- Generated by graphviz version 2.42.3 (0)
 -->
<!-- Title: flowchart Pages: 1 -->
<svg width="1543pt" height="1029pt"
 viewBox="0.00 0.00 1543.00 1029.00" xmlns="http://www.w3.org/2000/svg" xmlns:xlink="http://www.w3.org/1999/xlink">
<g id="graph0" class="graph" transform="scale(1 1) rotate(0) translate(4 1025)">
<title>flowchart</title>
<polygon fill="white" stroke="transparent" points="-4,4 -4,-1025 1539,-1025 1539,4 -4,4"/>
<g id="clust1" class="cluster">
<title>cluster1</title>
<polygon fill="none" stroke="black" points="267,-753 267,-1012 585,-1012 585,-753 267,-753"/>
<text text-anchor="middle" x="426" y="-996.8" font-family="Times,serif" font-size="14.00">1. Separation of Ag from Fe, Cu, Al, Mn, Zn</text>
</g>
<g id="clust2" class="cluster">
<title>cluster2</title>
<polygon fill="none" stroke="black" points="61,-570 61,-828 259,-828 259,-570 61,-570"/>
<text text-anchor="middle" x="160" y="-812.8" font-family="Times,serif" font-size="14.00">2. Confirmation of Ag</text>
</g>
<g id="clust3" class="cluster">
<title>cluster3</title>
<polygon fill="none" stroke="black" points="593,-570 593,-828 1019,-828 1019,-570 593,-570"/>
<text text-anchor="middle" x="806" y="-812.8" font-family="Times,serif" font-size="14.00">3. Separation of Mn, Fe, Cu from Al, Zn</text>
</g>
<g id="clust4" class="cluster">
<title>cluster4</title>
<polygon fill="none" stroke="black" points="362,-372 362,-645 576,-645 576,-372 362,-372"/>
<text text-anchor="middle" x="469" y="-629.8" font-family="Times,serif" font-size="14.00">4. Separation of Mn from Fe, Cu</text>
</g>
<g id="clust5" class="cluster">
<title>cluster5</title>
<polygon fill="none" stroke="black" points="584,-154 584,-462 811,-462 811,-154 584,-154"/>
<text text-anchor="middle" x="697.5" y="-446.8" font-family="Times,serif" font-size="14.00">5. Separation of Fe from Cu;</text>
<text text-anchor="middle" x="697.5" y="-431.8" font-family="Times,serif" font-size="14.00">Confirmation of Cu</text>
</g>
<g id="clust6" class="cluster">
<title>cluster6</title>
<polygon fill="none" stroke="black" points="345,-8 345,-229 576,-229 576,-8 345,-8"/>
<text text-anchor="middle" x="460.5" y="-213.8" font-family="Times,serif" font-size="14.00">6. Confirmation of Fe</text>
</g>
<g id="clust7" class="cluster">
<title>cluster7and8</title>
<polygon fill="none" stroke="black" points="8,-154 8,-447 337,-447 337,-154 8,-154"/>
<text text-anchor="middle" x="172.5" y="-431.8" font-family="Times,serif" font-size="14.00">7. Mn Ions / 8. Confirmation of Mn</text>
</g>
<g id="clust8" class="cluster">
<title>cluster9</title>
<polygon fill="none" stroke="black" points="1037,-263 1037,-645 1257,-645 1257,-263 1037,-263"/>
<text text-anchor="middle" x="1147" y="-629.8" font-family="Times,serif" font-size="14.00">9. Separation of Al from Zn</text>
</g>
<g id="clust9" class="cluster">
<title>cluster10</title>
<polygon fill="none" stroke="black" points="819,-81 819,-338 1029,-338 1029,-81 819,-81"/>
<text text-anchor="middle" x="924" y="-322.8" font-family="Times,serif" font-size="14.00">10. Confirmation of Al</text>
</g>
<g id="clust10" class="cluster">
<title>cluster11</title>
<polygon fill="none" stroke="black" points="1265,-154 1265,-338 1527,-338 1527,-154 1265,-154"/>
<text text-anchor="middle" x="1396" y="-322.8" font-family="Times,serif" font-size="14.00">11. Confirmation of Zn</text>
</g>
<g id="clust11" class="cluster">
<title>clusterkey</title>
<polygon fill="none" stroke="black" points="840,-936 840,-1013 1289,-1013 1289,-936 840,-936"/>
<text text-anchor="middle" x="1064.5" y="-997.8" font-family="Times,serif" font-size="14.00">Key</text>
</g>
<!-- ag_mn_fe_cu_al_zn -->
<g id="node1" class="node">
<title>ag_mn_fe_cu_al_zn</title>
<polygon fill="none" stroke="black" points="577,-981 355,-981 355,-945 577,-945 577,-981"/>
<text text-anchor="middle" x="466" y="-959.3" font-family="Times,serif" font-size="14.00">Ag⁺, Mn²⁺, Fe³⁺, Cu²⁺, Al³⁺, Zn²⁺ (aq)</text>
</g>
<!-- mn_fe_cu_al_zn_agcl -->
<g id="node3" class="node">
<title>mn_fe_cu_al_zn_agcl</title>
<polygon fill="none" stroke="red" points="575,-907 381,-907 381,-869 575,-869 575,-907"/>
<text text-anchor="middle" x="478" y="-891.8" font-family="Times,serif" font-size="14.00">Mn²⁺, Fe³⁺, Cu²⁺, Al³⁺, Zn²⁺ (aq)</text>
<text text-anchor="middle" x="478" y="-876.8" font-family="Times,serif" font-size="14.00">AgCl (s)</text>
</g>
<!-- ag_mn_fe_cu_al_zn&#45;&gt;mn_fe_cu_al_zn_agcl -->
<g id="edge1" class="edge">
<title>ag_mn_fe_cu_al_zn&#45;&gt;mn_fe_cu_al_zn_agcl</title>
<path fill="none" stroke="black" d="M468.84,-944.7C470.19,-936.49 471.84,-926.47 473.36,-917.2"/>
<polygon fill="black" stroke="black" points="476.84,-917.63 475.01,-907.19 469.93,-916.49 476.84,-917.63"/>
</g>
<!-- hcl_for_ag -->
<g id="node2" class="node">
<title>hcl_for_ag</title>
<polygon fill="none" stroke="red" points="337,-981 275,-981 275,-945 337,-945 337,-981"/>
<text text-anchor="middle" x="306" y="-959.3" font-family="Times,serif" font-size="14.00">6M HCl</text>
</g>
<!-- hcl_for_ag&#45;&gt;mn_fe_cu_al_zn_agcl -->
<g id="edge2" class="edge">
<title>hcl_for_ag&#45;&gt;mn_fe_cu_al_zn_agcl</title>
<path fill="none" stroke="red" d="M330.43,-944.84C335.46,-941.68 340.8,-938.57 346,-936 365.67,-926.27 387.87,-917.56 408.37,-910.37"/>
<polygon fill="red" stroke="red" points="409.65,-913.63 417.97,-907.06 407.38,-907.01 409.65,-913.63"/>
</g>
<!-- agcl -->
<g id="node4" class="node">
<title>agcl</title>
<polygon fill="none" stroke="black" points="351,-797 287,-797 287,-761 351,-761 351,-797"/>
<text text-anchor="middle" x="319" y="-775.3" font-family="Times,serif" font-size="14.00">AgCl (s)</text>
</g>
<!-- mn_fe_cu_al_zn_agcl&#45;&gt;agcl -->
<g id="edge3" class="edge">
<title>mn_fe_cu_al_zn_agcl&#45;&gt;agcl</title>
<path fill="none" stroke="black" d="M441.36,-868.9C420.63,-858.06 394.62,-843.41 373,-828 362.89,-820.79 352.52,-811.98 343.61,-803.88"/>
<polygon fill="black" stroke="black" points="345.91,-801.24 336.19,-797.01 341.15,-806.38 345.91,-801.24"/>
<text text-anchor="middle" x="434.5" y="-839.8" font-family="Times,serif" font-size="14.00">centrifuge</text>
</g>
<!-- mn_fe_cu_al_zn -->
<g id="node6" class="node">
<title>mn_fe_cu_al_zn</title>
<polygon fill="none" stroke="red" points="576,-797 382,-797 382,-761 576,-761 576,-797"/>
<text text-anchor="middle" x="479" y="-775.3" font-family="Times,serif" font-size="14.00">Mn²⁺, Fe³⁺, Cu²⁺, Al³⁺, Zn²⁺ (aq)</text>
</g>
<!-- mn_fe_cu_al_zn_agcl&#45;&gt;mn_fe_cu_al_zn -->
<g id="edge5" class="edge">
<title>mn_fe_cu_al_zn_agcl&#45;&gt;mn_fe_cu_al_zn</title>
<path fill="none" stroke="red" d="M478.17,-868.85C478.33,-851.95 478.57,-826.52 478.75,-807.19"/>
<polygon fill="red" stroke="red" points="482.25,-807.21 478.84,-797.18 475.25,-807.14 482.25,-807.21"/>
<text text-anchor="middle" x="497" y="-839.8" font-family="Times,serif" font-size="14.00">decant</text>
</g>
<!-- agnh32 -->
<g id="node8" class="node">
<title>agnh32</title>
<polygon fill="none" stroke="blue" points="250.5,-723 149.5,-723 149.5,-687 250.5,-687 250.5,-723"/>
<text text-anchor="middle" x="200" y="-701.3" font-family="Times,serif" font-size="14.00">Ag(NH₃)₂⁺ (aq)</text>
</g>
<!-- agcl&#45;&gt;agnh32 -->
<g id="edge6" class="edge">
<title>agcl&#45;&gt;agnh32</title>
<path fill="none" stroke="black" d="M290.8,-760.94C274.76,-751.23 254.48,-738.97 237.16,-728.48"/>
<polygon fill="black" stroke="black" points="238.78,-725.37 228.41,-723.19 235.16,-731.36 238.78,-725.37"/>
</g>
<!-- h2o_for_agcl -->
<g id="node5" class="node">
<title>h2o_for_agcl</title>
<polygon fill="none" stroke="black" points="363.5,-906 274.5,-906 274.5,-870 363.5,-870 363.5,-906"/>
<text text-anchor="middle" x="319" y="-884.3" font-family="Times,serif" font-size="14.00">1mL DI H₂O</text>
</g>
<!-- h2o_for_agcl&#45;&gt;agcl -->
<g id="edge4" class="edge">
<title>h2o_for_agcl&#45;&gt;agcl</title>
<path fill="none" stroke="black" d="M319,-869.81C319,-852.96 319,-827.02 319,-807.34"/>
<polygon fill="black" stroke="black" points="322.5,-807.15 319,-797.15 315.5,-807.15 322.5,-807.15"/>
<text text-anchor="middle" x="333" y="-839.8" font-family="Times,serif" font-size="14.00">wash</text>
</g>
<!-- mno2_feoh3_cuoh2_aloh4_znoh4 -->
<g id="node13" class="node">
<title>mno2_feoh3_cuoh2_aloh4_znoh4</title>
<polygon fill="none" stroke="blue" points="1010.5,-724 831.5,-724 831.5,-686 1010.5,-686 1010.5,-724"/>
<polyline fill="none" stroke="blue" points="843.5,-724 831.5,-712 "/>
<polyline fill="none" stroke="blue" points="831.5,-698 843.5,-686 "/>
<polyline fill="none" stroke="blue" points="998.5,-686 1010.5,-698 "/>
<polyline fill="none" stroke="blue" points="1010.5,-712 998.5,-724 "/>
<text text-anchor="middle" x="921" y="-708.8" font-family="Times,serif" font-size="14.00">Al(OH)₄⁻, Zn(OH)₄²⁻ (aq)</text>
<text text-anchor="middle" x="921" y="-693.8" font-family="Times,serif" font-size="14.00">MnO₂, Fe(OH)₃, Cu(OH)₂ (s)</text>
</g>
<!-- mn_fe_cu_al_zn&#45;&gt;mno2_feoh3_cuoh2_aloh4_znoh4 -->
<g id="edge10" class="edge">
<title>mn_fe_cu_al_zn&#45;&gt;mno2_feoh3_cuoh2_aloh4_znoh4</title>
<path fill="none" stroke="red" d="M549.21,-760.95C562.38,-758.06 576.08,-755.27 589,-753 688.67,-735.52 717.14,-739.51 821.46,-724.02"/>
<polygon fill="red" stroke="red" points="822.09,-727.47 831.46,-722.51 821.05,-720.54 822.09,-727.47"/>
</g>
<!-- nh3_for_agcl -->
<g id="node7" class="node">
<title>nh3_for_agcl</title>
<polygon fill="none" stroke="blue" points="247,-797 153,-797 153,-761 247,-761 247,-797"/>
<text text-anchor="middle" x="200" y="-775.3" font-family="Times,serif" font-size="14.00">1mL 6M NH₃</text>
</g>
<!-- nh3_for_agcl&#45;&gt;agnh32 -->
<g id="edge7" class="edge">
<title>nh3_for_agcl&#45;&gt;agnh32</title>
<path fill="none" stroke="blue" d="M200,-760.94C200,-752.81 200,-742.88 200,-733.7"/>
<polygon fill="blue" stroke="blue" points="203.5,-733.44 200,-723.44 196.5,-733.44 203.5,-733.44"/>
</g>
<!-- agcl_again -->
<g id="node10" class="node">
<title>agcl_again</title>
<polygon fill="none" stroke="red" points="159,-614 95,-614 95,-578 159,-578 159,-614"/>
<text text-anchor="middle" x="127" y="-592.3" font-family="Times,serif" font-size="14.00">AgCl (s)</text>
</g>
<!-- agnh32&#45;&gt;agcl_again -->
<g id="edge8" class="edge">
<title>agnh32&#45;&gt;agcl_again</title>
<path fill="none" stroke="blue" d="M188.27,-686.81C176.4,-669.42 157.92,-642.33 144.36,-622.45"/>
<polygon fill="blue" stroke="blue" points="147.23,-620.44 138.7,-614.15 141.44,-624.38 147.23,-620.44"/>
</g>
<!-- hcl_for_ag_again -->
<g id="node9" class="node">
<title>hcl_for_ag_again</title>
<polygon fill="none" stroke="red" points="131,-723 69,-723 69,-687 131,-687 131,-723"/>
<text text-anchor="middle" x="100" y="-701.3" font-family="Times,serif" font-size="14.00">6M HCl</text>
</g>
<!-- hcl_for_ag_again&#45;&gt;agcl_again -->
<g id="edge9" class="edge">
<title>hcl_for_ag_again&#45;&gt;agcl_again</title>
<path fill="none" stroke="red" d="M104.34,-686.81C108.61,-669.88 115.2,-643.78 120.17,-624.07"/>
<polygon fill="red" stroke="red" points="123.62,-624.7 122.67,-614.15 116.83,-622.99 123.62,-624.7"/>
</g>
<!-- h2o2 -->
<g id="node11" class="node">
<title>h2o2</title>
<polygon fill="none" stroke="black" points="1002.5,-797 883.5,-797 883.5,-761 1002.5,-761 1002.5,-797"/>
<text text-anchor="middle" x="943" y="-775.3" font-family="Times,serif" font-size="14.00">10 drops 3% H₂O₂</text>
</g>
<!-- h2o2&#45;&gt;mno2_feoh3_cuoh2_aloh4_znoh4 -->
<g id="edge11" class="edge">
<title>h2o2&#45;&gt;mno2_feoh3_cuoh2_aloh4_znoh4</title>
<path fill="none" stroke="black" d="M937.79,-760.94C935.33,-752.9 932.34,-743.1 929.56,-734.02"/>
<polygon fill="black" stroke="black" points="932.83,-732.74 926.56,-724.2 926.14,-734.79 932.83,-732.74"/>
</g>
<!-- naoh_for_mg_fe_cu -->
<g id="node12" class="node">
<title>naoh_for_mg_fe_cu</title>
<polygon fill="none" stroke="blue" points="865.5,-797 790.5,-797 790.5,-761 865.5,-761 865.5,-797"/>
<text text-anchor="middle" x="828" y="-775.3" font-family="Times,serif" font-size="14.00">6M NaOH</text>
</g>
<!-- naoh_for_mg_fe_cu&#45;&gt;mno2_feoh3_cuoh2_aloh4_znoh4 -->
<g id="edge12" class="edge">
<title>naoh_for_mg_fe_cu&#45;&gt;mno2_feoh3_cuoh2_aloh4_znoh4</title>
<path fill="none" stroke="blue" d="M850.04,-760.94C861.76,-751.86 876.38,-740.55 889.3,-730.54"/>
<polygon fill="blue" stroke="blue" points="891.73,-733.09 897.49,-724.2 887.44,-727.55 891.73,-733.09"/>
</g>
<!-- mno2_feoh3_cuoh2 -->
<g id="node14" class="node">
<title>mno2_feoh3_cuoh2</title>
<polygon fill="none" stroke="blue" points="796.5,-614 617.5,-614 617.5,-578 796.5,-578 796.5,-614"/>
<text text-anchor="middle" x="707" y="-592.3" font-family="Times,serif" font-size="14.00">MnO₂, Fe(OH)₃, Cu(OH)₂ (s)</text>
</g>
<!-- mno2_feoh3_cuoh2_aloh4_znoh4&#45;&gt;mno2_feoh3_cuoh2 -->
<g id="edge13" class="edge">
<title>mno2_feoh3_cuoh2_aloh4_znoh4&#45;&gt;mno2_feoh3_cuoh2</title>
<path fill="none" stroke="blue" d="M884.7,-685.85C847.49,-667.25 789.65,-638.32 750.13,-618.57"/>
<polygon fill="blue" stroke="blue" points="751.51,-615.34 741,-614 748.38,-621.6 751.51,-615.34"/>
<text text-anchor="middle" x="873.5" y="-656.8" font-family="Times,serif" font-size="14.00">centrifuge</text>
</g>
<!-- aloh4_znoh4 -->
<g id="node16" class="node">
<title>aloh4_znoh4</title>
<polygon fill="none" stroke="blue" points="1008,-614 850,-614 850,-578 1008,-578 1008,-614"/>
<text text-anchor="middle" x="929" y="-592.3" font-family="Times,serif" font-size="14.00">Al(OH)₄⁻, Zn(OH)₄²⁻ (aq)</text>
</g>
<!-- mno2_feoh3_cuoh2_aloh4_znoh4&#45;&gt;aloh4_znoh4 -->
<g id="edge15" class="edge">
<title>mno2_feoh3_cuoh2_aloh4_znoh4&#45;&gt;aloh4_znoh4</title>
<path fill="none" stroke="blue" d="M922.36,-685.85C923.62,-668.95 925.52,-643.52 926.97,-624.19"/>
<polygon fill="blue" stroke="blue" points="930.46,-624.41 927.72,-614.18 923.48,-623.89 930.46,-624.41"/>
<text text-anchor="middle" x="943" y="-656.8" font-family="Times,serif" font-size="14.00">decant</text>
</g>
<!-- fe_cu_mno2 -->
<g id="node19" class="node">
<title>fe_cu_mno2</title>
<polygon fill="none" stroke="red" points="564.5,-541 467.5,-541 467.5,-503 564.5,-503 564.5,-541"/>
<text text-anchor="middle" x="516" y="-525.8" font-family="Times,serif" font-size="14.00">Fe³⁺, Cu²⁺ (aq)</text>
<text text-anchor="middle" x="516" y="-510.8" font-family="Times,serif" font-size="14.00">MnO₂(s)</text>
</g>
<!-- mno2_feoh3_cuoh2&#45;&gt;fe_cu_mno2 -->
<g id="edge16" class="edge">
<title>mno2_feoh3_cuoh2&#45;&gt;fe_cu_mno2</title>
<path fill="none" stroke="black" d="M661.74,-577.94C635.27,-567.96 601.62,-555.27 573.32,-544.61"/>
<polygon fill="black" stroke="black" points="574.53,-541.32 563.94,-541.07 572.06,-547.87 574.53,-541.32"/>
</g>
<!-- naoh_h2o_for_mno2_feoh3_cuoh2 -->
<g id="node15" class="node">
<title>naoh_h2o_for_mno2_feoh3_cuoh2</title>
<polygon fill="none" stroke="blue" points="813.5,-723 600.5,-723 600.5,-687 813.5,-687 813.5,-723"/>
<text text-anchor="middle" x="707" y="-701.3" font-family="Times,serif" font-size="14.00">10 drops 6M NaOH, 10 drops H₂O₂</text>
</g>
<!-- naoh_h2o_for_mno2_feoh3_cuoh2&#45;&gt;mno2_feoh3_cuoh2 -->
<g id="edge14" class="edge">
<title>naoh_h2o_for_mno2_feoh3_cuoh2&#45;&gt;mno2_feoh3_cuoh2</title>
<path fill="none" stroke="blue" d="M707,-686.81C707,-669.96 707,-644.02 707,-624.34"/>
<polygon fill="blue" stroke="blue" points="710.5,-624.15 707,-614.15 703.5,-624.15 710.5,-624.15"/>
<text text-anchor="middle" x="721" y="-656.8" font-family="Times,serif" font-size="14.00">wash</text>
</g>
<!-- al_zn -->
<g id="node38" class="node">
<title>al_zn</title>
<polygon fill="none" stroke="red" points="1223,-540 1127,-540 1127,-504 1223,-504 1223,-540"/>
<text text-anchor="middle" x="1175" y="-518.3" font-family="Times,serif" font-size="14.00">Al³⁺, Zn²⁺ (aq)</text>
</g>
<!-- aloh4_znoh4&#45;&gt;al_zn -->
<g id="edge36" class="edge">
<title>aloh4_znoh4&#45;&gt;al_zn</title>
<path fill="none" stroke="blue" d="M990.41,-577.92C1025.13,-568.15 1069.55,-555.48 1117.25,-541.19"/>
<polygon fill="blue" stroke="blue" points="1118.26,-544.54 1126.83,-538.32 1116.24,-537.84 1118.26,-544.54"/>
</g>
<!-- h2o_for_mno2_feoh3_cuoh2 -->
<g id="node17" class="node">
<title>h2o_for_mno2_feoh3_cuoh2</title>
<polygon fill="none" stroke="black" points="567.5,-614 464.5,-614 464.5,-578 567.5,-578 567.5,-614"/>
<text text-anchor="middle" x="516" y="-592.3" font-family="Times,serif" font-size="14.00">5 drops DI H₂O</text>
</g>
<!-- h2o_for_mno2_feoh3_cuoh2&#45;&gt;fe_cu_mno2 -->
<g id="edge17" class="edge">
<title>h2o_for_mno2_feoh3_cuoh2&#45;&gt;fe_cu_mno2</title>
<path fill="none" stroke="black" d="M516,-577.94C516,-569.99 516,-560.31 516,-551.31"/>
<polygon fill="black" stroke="black" points="519.5,-551.2 516,-541.2 512.5,-551.2 519.5,-551.2"/>
</g>
<!-- h2so4_for_feoh3_cuoh2 -->
<g id="node18" class="node">
<title>h2so4_for_feoh3_cuoh2</title>
<polygon fill="none" stroke="red" points="446,-614 370,-614 370,-578 446,-578 446,-614"/>
<text text-anchor="middle" x="408" y="-592.3" font-family="Times,serif" font-size="14.00">6M H₂SO₄</text>
</g>
<!-- h2so4_for_feoh3_cuoh2&#45;&gt;fe_cu_mno2 -->
<g id="edge18" class="edge">
<title>h2so4_for_feoh3_cuoh2&#45;&gt;fe_cu_mno2</title>
<path fill="none" stroke="red" d="M433.59,-577.94C447.46,-568.69 464.83,-557.11 480.04,-546.97"/>
<polygon fill="red" stroke="red" points="482.32,-549.66 488.7,-541.2 478.44,-543.83 482.32,-549.66"/>
</g>
<!-- mno2 -->
<g id="node21" class="node">
<title>mno2</title>
<polygon fill="none" stroke="black" points="438,-416 370,-416 370,-380 438,-380 438,-416"/>
<text text-anchor="middle" x="404" y="-394.3" font-family="Times,serif" font-size="14.00">MnO₂ (s)</text>
</g>
<!-- fe_cu_mno2&#45;&gt;mno2 -->
<g id="edge19" class="edge">
<title>fe_cu_mno2&#45;&gt;mno2</title>
<path fill="none" stroke="black" d="M481.93,-502.9C473.9,-497.74 465.72,-491.68 459,-485 441.34,-467.44 426.5,-443.25 416.7,-425"/>
<polygon fill="black" stroke="black" points="419.77,-423.31 412.05,-416.06 413.56,-426.54 419.77,-423.31"/>
<text text-anchor="middle" x="486.5" y="-473.8" font-family="Times,serif" font-size="14.00">centrifuge</text>
</g>
<!-- fe_cu -->
<g id="node22" class="node">
<title>fe_cu</title>
<polygon fill="none" stroke="red" points="568.5,-416 471.5,-416 471.5,-380 568.5,-380 568.5,-416"/>
<text text-anchor="middle" x="520" y="-394.3" font-family="Times,serif" font-size="14.00">Fe³⁺, Cu²⁺ (aq)</text>
</g>
<!-- fe_cu_mno2&#45;&gt;fe_cu -->
<g id="edge21" class="edge">
<title>fe_cu_mno2&#45;&gt;fe_cu</title>
<path fill="none" stroke="black" d="M516.59,-503C517.25,-482.77 518.34,-449.69 519.11,-426.28"/>
<polygon fill="black" stroke="black" points="522.6,-426.39 519.43,-416.29 515.61,-426.17 522.6,-426.39"/>
<text text-anchor="middle" x="536" y="-473.8" font-family="Times,serif" font-size="14.00">decant</text>
</g>
<!-- h2o_for_mno2 -->
<g id="node20" class="node">
<title>h2o_for_mno2</title>
<polygon fill="none" stroke="black" points="429.5,-540 370.5,-540 370.5,-504 429.5,-504 429.5,-540"/>
<text text-anchor="middle" x="400" y="-518.3" font-family="Times,serif" font-size="14.00">DI H₂O</text>
</g>
<!-- h2o_for_mno2&#45;&gt;mno2 -->
<g id="edge20" class="edge">
<title>h2o_for_mno2&#45;&gt;mno2</title>
<path fill="none" stroke="black" d="M397.7,-503.82C397.01,-497.87 396.34,-491.15 396,-485 394.91,-465.35 397.04,-443.24 399.38,-426.36"/>
<polygon fill="black" stroke="black" points="402.89,-426.51 400.91,-416.1 395.97,-425.48 402.89,-426.51"/>
<text text-anchor="middle" x="410" y="-473.8" font-family="Times,serif" font-size="14.00">wash</text>
</g>
<!-- mn -->
<g id="node33" class="node">
<title>mn</title>
<polygon fill="none" stroke="red" points="289.5,-307 218.5,-307 218.5,-271 289.5,-271 289.5,-307"/>
<polyline fill="none" stroke="red" points="230.5,-307 218.5,-295 "/>
<polyline fill="none" stroke="red" points="218.5,-283 230.5,-271 "/>
<polyline fill="none" stroke="red" points="277.5,-271 289.5,-283 "/>
<polyline fill="none" stroke="red" points="289.5,-295 277.5,-307 "/>
<text text-anchor="middle" x="254" y="-285.3" font-family="Times,serif" font-size="14.00">Mn²⁺ (aq)</text>
</g>
<!-- mno2&#45;&gt;mn -->
<g id="edge30" class="edge">
<title>mno2&#45;&gt;mn</title>
<path fill="none" stroke="black" d="M379.9,-379.81C354.53,-361.71 314.46,-333.12 286.35,-313.08"/>
<polygon fill="black" stroke="black" points="288.21,-310.11 278.04,-307.15 284.15,-315.81 288.21,-310.11"/>
</g>
<!-- cunh34_feoh3 -->
<g id="node24" class="node">
<title>cunh34_feoh3</title>
<polygon fill="royalblue" stroke="blue" points="803,-308 699,-308 699,-270 803,-270 803,-308"/>
<text text-anchor="middle" x="751" y="-292.8" font-family="Times,serif" font-size="14.00">Cu(NH₃)₄²⁺ (aq)</text>
<text text-anchor="middle" x="751" y="-277.8" font-family="Times,serif" font-size="14.00">Fe(OH)₃ (s)</text>
</g>
<!-- fe_cu&#45;&gt;cunh34_feoh3 -->
<g id="edge22" class="edge">
<title>fe_cu&#45;&gt;cunh34_feoh3</title>
<path fill="none" stroke="red" d="M559.49,-379.94C566.29,-377.18 573.32,-374.43 580,-372 627.69,-354.67 644,-361.46 689,-338 701.1,-331.69 713.22,-322.97 723.5,-314.69"/>
<polygon fill="red" stroke="red" points="725.86,-317.28 731.31,-308.19 721.39,-311.89 725.86,-317.28"/>
</g>
<!-- nh3_for_fe_cu -->
<g id="node23" class="node">
<title>nh3_for_fe_cu</title>
<polygon fill="none" stroke="blue" points="783,-416 719,-416 719,-380 783,-380 783,-416"/>
<text text-anchor="middle" x="751" y="-394.3" font-family="Times,serif" font-size="14.00">6M NH₃</text>
</g>
<!-- nh3_for_fe_cu&#45;&gt;cunh34_feoh3 -->
<g id="edge23" class="edge">
<title>nh3_for_fe_cu&#45;&gt;cunh34_feoh3</title>
<path fill="none" stroke="blue" d="M751,-379.81C751,-363.26 751,-337.94 751,-318.39"/>
<polygon fill="blue" stroke="blue" points="754.5,-318.22 751,-308.22 747.5,-318.22 754.5,-318.22"/>
</g>
<!-- feoh3 -->
<g id="node26" class="node">
<title>feoh3</title>
<polygon fill="none" stroke="blue" points="676.5,-198 595.5,-198 595.5,-162 676.5,-162 676.5,-198"/>
<text text-anchor="middle" x="636" y="-176.3" font-family="Times,serif" font-size="14.00">Fe(OH)₃ (s)</text>
</g>
<!-- cunh34_feoh3&#45;&gt;feoh3 -->
<g id="edge24" class="edge">
<title>cunh34_feoh3&#45;&gt;feoh3</title>
<path fill="none" stroke="black" d="M731.49,-269.85C712.32,-252.01 682.93,-224.67 661.83,-205.03"/>
<polygon fill="black" stroke="black" points="664.17,-202.43 654.46,-198.18 659.4,-207.55 664.17,-202.43"/>
<text text-anchor="middle" x="738.5" y="-240.8" font-family="Times,serif" font-size="14.00">centrifuge</text>
</g>
<!-- h2o_for_feoh3 -->
<g id="node25" class="node">
<title>h2o_for_feoh3</title>
<polygon fill="none" stroke="black" points="680.5,-307 591.5,-307 591.5,-271 680.5,-271 680.5,-307"/>
<text text-anchor="middle" x="636" y="-285.3" font-family="Times,serif" font-size="14.00">2mL DI H₂O</text>
</g>
<!-- h2o_for_feoh3&#45;&gt;feoh3 -->
<g id="edge25" class="edge">
<title>h2o_for_feoh3&#45;&gt;feoh3</title>
<path fill="none" stroke="black" d="M636,-270.81C636,-253.96 636,-228.02 636,-208.34"/>
<polygon fill="black" stroke="black" points="639.5,-208.15 636,-198.15 632.5,-208.15 639.5,-208.15"/>
<text text-anchor="middle" x="650" y="-240.8" font-family="Times,serif" font-size="14.00">wash</text>
</g>
<!-- fe -->
<g id="node28" class="node">
<title>fe</title>
<polygon fill="none" stroke="red" points="567.5,-125 502.5,-125 502.5,-89 567.5,-89 567.5,-125"/>
<text text-anchor="middle" x="535" y="-103.3" font-family="Times,serif" font-size="14.00">Fe³⁺ (aq)</text>
</g>
<!-- feoh3&#45;&gt;fe -->
<g id="edge26" class="edge">
<title>feoh3&#45;&gt;fe</title>
<path fill="none" stroke="blue" d="M611.81,-161.99C598.66,-152.75 582.22,-141.19 567.92,-131.14"/>
<polygon fill="blue" stroke="blue" points="569.54,-128 559.34,-125.11 565.51,-133.73 569.54,-128"/>
</g>
<!-- h2so4_for_feoh3 -->
<g id="node27" class="node">
<title>h2so4_for_feoh3</title>
<polygon fill="none" stroke="red" points="568,-198 492,-198 492,-162 568,-162 568,-198"/>
<text text-anchor="middle" x="530" y="-176.3" font-family="Times,serif" font-size="14.00">6M H₂SO₄</text>
</g>
<!-- h2so4_for_feoh3&#45;&gt;fe -->
<g id="edge27" class="edge">
<title>h2so4_for_feoh3&#45;&gt;fe</title>
<path fill="none" stroke="red" d="M531.21,-161.81C531.78,-153.79 532.46,-144.05 533.09,-135.07"/>
<polygon fill="red" stroke="red" points="536.59,-135.25 533.8,-125.03 529.61,-134.76 536.59,-135.25"/>
</g>
<!-- fescn -->
<g id="node30" class="node">
<title>fescn</title>
<polygon fill="maroon" stroke="red" points="522.5,-52 431.5,-52 431.5,-16 522.5,-16 522.5,-52"/>
<text text-anchor="middle" x="477" y="-30.3" font-family="Times,serif" font-size="14.00">FeSCN²⁺ (aq)</text>
</g>
<!-- fe&#45;&gt;fescn -->
<g id="edge28" class="edge">
<title>fe&#45;&gt;fescn</title>
<path fill="none" stroke="red" d="M520.96,-88.81C513.91,-80.18 505.23,-69.56 497.45,-60.03"/>
<polygon fill="red" stroke="red" points="499.95,-57.56 490.91,-52.03 494.53,-61.99 499.95,-57.56"/>
</g>
<!-- kscn -->
<g id="node29" class="node">
<title>kscn</title>
<polygon fill="none" stroke="black" points="484.5,-125 353.5,-125 353.5,-89 484.5,-89 484.5,-125"/>
<text text-anchor="middle" x="419" y="-103.3" font-family="Times,serif" font-size="14.00">5 drops 0.1M KSCN</text>
</g>
<!-- kscn&#45;&gt;fescn -->
<g id="edge29" class="edge">
<title>kscn&#45;&gt;fescn</title>
<path fill="none" stroke="black" d="M433.04,-88.81C440.09,-80.18 448.77,-69.56 456.55,-60.03"/>
<polygon fill="black" stroke="black" points="459.47,-61.99 463.09,-52.03 454.05,-57.56 459.47,-61.99"/>
</g>
<!-- h2o_h2so4_for_mno2 -->
<g id="node31" class="node">
<title>h2o_h2so4_for_mno2</title>
<polygon fill="none" stroke="red" points="328.5,-416 135.5,-416 135.5,-380 328.5,-380 328.5,-416"/>
<text text-anchor="middle" x="232" y="-394.3" font-family="Times,serif" font-size="14.00">1 mL DI H₂O, 1 mL 6M H₂SO₄</text>
</g>
<!-- h2o_h2so4_for_mno2&#45;&gt;mn -->
<g id="edge31" class="edge">
<title>h2o_h2so4_for_mno2&#45;&gt;mn</title>
<path fill="none" stroke="red" d="M235.53,-379.81C239.01,-362.88 244.38,-336.78 248.43,-317.07"/>
<polygon fill="red" stroke="red" points="251.89,-317.65 250.47,-307.15 245.03,-316.24 251.89,-317.65"/>
</g>
<!-- h2o2_for_mno2 -->
<g id="node32" class="node">
<title>h2o2_for_mno2</title>
<polygon fill="none" stroke="black" points="117.5,-416 16.5,-416 16.5,-380 117.5,-380 117.5,-416"/>
<text text-anchor="middle" x="67" y="-394.3" font-family="Times,serif" font-size="14.00">1 mL 3% H₂O₂</text>
</g>
<!-- h2o2_for_mno2&#45;&gt;mn -->
<g id="edge32" class="edge">
<title>h2o2_for_mno2&#45;&gt;mn</title>
<path fill="none" stroke="black" d="M106.96,-379.99C113.32,-377.3 119.84,-374.57 126,-372 162.8,-356.67 176.17,-360.61 209,-338 218.27,-331.62 227.07,-323.04 234.38,-314.9"/>
<polygon fill="black" stroke="black" points="237.04,-317.18 240.91,-307.32 231.74,-312.61 237.04,-317.18"/>
</g>
<!-- mno4 -->
<g id="node36" class="node">
<title>mno4</title>
<polygon fill="purple" stroke="red" points="187,-198 107,-198 107,-162 187,-162 187,-198"/>
<text text-anchor="middle" x="147" y="-176.3" font-family="Times,serif" font-size="14.00">MnO₄⁻ (aq)</text>
</g>
<!-- mn&#45;&gt;mno4 -->
<g id="edge33" class="edge">
<title>mn&#45;&gt;mno4</title>
<path fill="none" stroke="red" d="M236.81,-270.81C219.1,-253.1 191.35,-225.35 171.38,-205.38"/>
<polygon fill="red" stroke="red" points="173.69,-202.74 164.15,-198.15 168.74,-207.69 173.69,-202.74"/>
</g>
<!-- hno3_for_mn -->
<g id="node34" class="node">
<title>hno3_for_mn</title>
<polygon fill="none" stroke="red" points="200.5,-307 93.5,-307 93.5,-271 200.5,-271 200.5,-307"/>
<text text-anchor="middle" x="147" y="-285.3" font-family="Times,serif" font-size="14.00">1 mL 6M HNO₃</text>
</g>
<!-- hno3_for_mn&#45;&gt;mno4 -->
<g id="edge34" class="edge">
<title>hno3_for_mn&#45;&gt;mno4</title>
<path fill="none" stroke="red" d="M147,-270.81C147,-253.96 147,-228.02 147,-208.34"/>
<polygon fill="red" stroke="red" points="150.5,-208.15 147,-198.15 143.5,-208.15 150.5,-208.15"/>
</g>
<!-- nabio3 -->
<g id="node35" class="node">
<title>nabio3</title>
<polygon fill="none" stroke="black" points="75.5,-307 16.5,-307 16.5,-271 75.5,-271 75.5,-307"/>
<text text-anchor="middle" x="46" y="-285.3" font-family="Times,serif" font-size="14.00">NaBiO₃</text>
</g>
<!-- nabio3&#45;&gt;mno4 -->
<g id="edge35" class="edge">
<title>nabio3&#45;&gt;mno4</title>
<path fill="none" stroke="black" d="M62.23,-270.81C78.87,-253.18 104.9,-225.6 123.73,-205.65"/>
<polygon fill="black" stroke="black" points="126.49,-207.82 130.81,-198.15 121.4,-203.02 126.49,-207.82"/>
</g>
<!-- hno3_for_aloh4_znoh4 -->
<g id="node37" class="node">
<title>hno3_for_aloh4_znoh4</title>
<polygon fill="none" stroke="red" points="1212,-614 1138,-614 1138,-578 1212,-578 1212,-614"/>
<text text-anchor="middle" x="1175" y="-592.3" font-family="Times,serif" font-size="14.00">6M HNO₃</text>
</g>
<!-- hno3_for_aloh4_znoh4&#45;&gt;al_zn -->
<g id="edge37" class="edge">
<title>hno3_for_aloh4_znoh4&#45;&gt;al_zn</title>
<path fill="none" stroke="red" d="M1175,-577.94C1175,-569.81 1175,-559.88 1175,-550.7"/>
<polygon fill="red" stroke="red" points="1178.5,-550.44 1175,-540.44 1171.5,-550.44 1178.5,-550.44"/>
</g>
<!-- aloh3_znnh34 -->
<g id="node40" class="node">
<title>aloh3_znnh34</title>
<polygon fill="none" stroke="blue" points="1182,-417 1078,-417 1078,-379 1182,-379 1182,-417"/>
<text text-anchor="middle" x="1130" y="-401.8" font-family="Times,serif" font-size="14.00">Zn(NH₃)₄²⁺ (aq)</text>
<text text-anchor="middle" x="1130" y="-386.8" font-family="Times,serif" font-size="14.00">Al(OH)₃ (s)</text>
</g>
<!-- al_zn&#45;&gt;aloh3_znnh34 -->
<g id="edge38" class="edge">
<title>al_zn&#45;&gt;aloh3_znnh34</title>
<path fill="none" stroke="red" d="M1168.65,-503.78C1161.27,-483.78 1149,-450.51 1140.26,-426.82"/>
<polygon fill="red" stroke="red" points="1143.5,-425.5 1136.76,-417.33 1136.94,-427.92 1143.5,-425.5"/>
</g>
<!-- nh3_for_al_zn -->
<g id="node39" class="node">
<title>nh3_for_al_zn</title>
<polygon fill="none" stroke="blue" points="1109,-540 1045,-540 1045,-504 1109,-504 1109,-540"/>
<text text-anchor="middle" x="1077" y="-518.3" font-family="Times,serif" font-size="14.00">6M NH₃</text>
</g>
<!-- nh3_for_al_zn&#45;&gt;aloh3_znnh34 -->
<g id="edge39" class="edge">
<title>nh3_for_al_zn&#45;&gt;aloh3_znnh34</title>
<path fill="none" stroke="blue" d="M1084.48,-503.78C1093.21,-483.69 1107.75,-450.21 1118.05,-426.51"/>
<polygon fill="blue" stroke="blue" points="1121.26,-427.9 1122.04,-417.33 1114.84,-425.11 1121.26,-427.9"/>
</g>
<!-- aloh3 -->
<g id="node41" class="node">
<title>aloh3</title>
<polygon fill="none" stroke="blue" points="1126.5,-307 1045.5,-307 1045.5,-271 1126.5,-271 1126.5,-307"/>
<text text-anchor="middle" x="1086" y="-285.3" font-family="Times,serif" font-size="14.00">Al(OH)₃ (s)</text>
</g>
<!-- aloh3_znnh34&#45;&gt;aloh3 -->
<g id="edge40" class="edge">
<title>aloh3_znnh34&#45;&gt;aloh3</title>
<path fill="none" stroke="blue" d="M1119.8,-378.94C1116.79,-373.28 1113.6,-366.96 1111,-361 1104.74,-346.69 1098.88,-330.26 1094.4,-316.82"/>
<polygon fill="blue" stroke="blue" points="1097.7,-315.62 1091.27,-307.2 1091.04,-317.79 1097.7,-315.62"/>
<text text-anchor="middle" x="1138.5" y="-349.8" font-family="Times,serif" font-size="14.00">centrifuge</text>
</g>
<!-- znnh34 -->
<g id="node42" class="node">
<title>znnh34</title>
<polygon fill="none" stroke="blue" points="1249,-307 1145,-307 1145,-271 1249,-271 1249,-307"/>
<text text-anchor="middle" x="1197" y="-285.3" font-family="Times,serif" font-size="14.00">Zn(NH₃)₄²⁺ (aq)</text>
</g>
<!-- aloh3_znnh34&#45;&gt;znnh34 -->
<g id="edge41" class="edge">
<title>aloh3_znnh34&#45;&gt;znnh34</title>
<path fill="none" stroke="blue" d="M1150.88,-378.77C1156.25,-373.4 1161.72,-367.28 1166,-361 1175.27,-347.41 1182.76,-330.6 1188.05,-316.75"/>
<polygon fill="blue" stroke="blue" points="1191.37,-317.86 1191.51,-307.27 1184.79,-315.46 1191.37,-317.86"/>
<text text-anchor="middle" x="1192" y="-349.8" font-family="Times,serif" font-size="14.00">decant</text>
</g>
<!-- al -->
<g id="node45" class="node">
<title>al</title>
<polygon fill="none" stroke="red" points="1020.5,-198 955.5,-198 955.5,-162 1020.5,-162 1020.5,-198"/>
<text text-anchor="middle" x="988" y="-176.3" font-family="Times,serif" font-size="14.00">Al³⁺ (aq)</text>
</g>
<!-- aloh3&#45;&gt;al -->
<g id="edge42" class="edge">
<title>aloh3&#45;&gt;al</title>
<path fill="none" stroke="blue" d="M1070.25,-270.81C1054.11,-253.18 1028.85,-225.6 1010.57,-205.65"/>
<polygon fill="blue" stroke="blue" points="1013.04,-203.16 1003.71,-198.15 1007.88,-207.89 1013.04,-203.16"/>
</g>
<!-- k2zn3fecn62 -->
<g id="node50" class="node">
<title>k2zn3fecn62</title>
<defs>
<linearGradient id="l_0" gradientUnits="userSpaceOnUse" x1="1292" y1="-180" x2="1420" y2="-180" >
<stop offset="0" style="stop-color:white;stop-opacity:1.;"/>
<stop offset="1" style="stop-color:lightgreen;stop-opacity:1.;"/>
</linearGradient>
</defs>
<polygon fill="url(#l_0)" stroke="red" points="1420,-198 1292,-198 1292,-162 1420,-162 1420,-198"/>
<text text-anchor="middle" x="1356" y="-176.3" font-family="Times,serif" font-size="14.00">K₂Zn₃[Fe(CN)₆]₂ (s)</text>
</g>
<!-- znnh34&#45;&gt;k2zn3fecn62 -->
<g id="edge47" class="edge">
<title>znnh34&#45;&gt;k2zn3fecn62</title>
<path fill="none" stroke="blue" d="M1222.55,-270.81C1249.55,-252.64 1292.28,-223.88 1322.09,-203.82"/>
<polygon fill="blue" stroke="blue" points="1324.18,-206.64 1330.52,-198.15 1320.27,-200.83 1324.18,-206.64"/>
</g>
<!-- hcl_for_aloh3 -->
<g id="node43" class="node">
<title>hcl_for_aloh3</title>
<polygon fill="none" stroke="red" points="1021,-307 959,-307 959,-271 1021,-271 1021,-307"/>
<text text-anchor="middle" x="990" y="-285.3" font-family="Times,serif" font-size="14.00">6M HCl</text>
</g>
<!-- hcl_for_aloh3&#45;&gt;al -->
<g id="edge43" class="edge">
<title>hcl_for_aloh3&#45;&gt;al</title>
<path fill="none" stroke="red" d="M989.68,-270.81C989.36,-253.96 988.88,-228.02 988.51,-208.34"/>
<polygon fill="red" stroke="red" points="992.01,-208.08 988.32,-198.15 985.01,-208.21 992.01,-208.08"/>
</g>
<!-- aluminon -->
<g id="node44" class="node">
<title>aluminon</title>
<polygon fill="none" stroke="black" points="940.5,-307 827.5,-307 827.5,-271 940.5,-271 940.5,-307"/>
<text text-anchor="middle" x="884" y="-285.3" font-family="Times,serif" font-size="14.00">3 drops aluminon</text>
</g>
<!-- aluminon&#45;&gt;al -->
<g id="edge44" class="edge">
<title>aluminon&#45;&gt;al</title>
<path fill="none" stroke="black" d="M902.88,-270.88C915.39,-259.32 932.01,-243.58 946,-229 952.98,-221.72 960.31,-213.55 966.85,-206.04"/>
<polygon fill="black" stroke="black" points="969.72,-208.08 973.6,-198.22 964.41,-203.51 969.72,-208.08"/>
</g>
<!-- aloh3_again -->
<g id="node47" class="node">
<title>aloh3_again</title>
<polygon fill="tomato" stroke="blue" points="987.5,-125 906.5,-125 906.5,-89 987.5,-89 987.5,-125"/>
<text text-anchor="middle" x="947" y="-103.3" font-family="Times,serif" font-size="14.00">Al(OH)₃ (s)</text>
</g>
<!-- al&#45;&gt;aloh3_again -->
<g id="edge45" class="edge">
<title>al&#45;&gt;aloh3_again</title>
<path fill="none" stroke="red" d="M978.08,-161.81C973.24,-153.44 967.33,-143.2 961.96,-133.9"/>
<polygon fill="red" stroke="red" points="964.87,-131.94 956.83,-125.03 958.8,-135.44 964.87,-131.94"/>
</g>
<!-- nh3_for_al -->
<g id="node46" class="node">
<title>nh3_for_al</title>
<polygon fill="none" stroke="blue" points="937,-198 873,-198 873,-162 937,-162 937,-198"/>
<text text-anchor="middle" x="905" y="-176.3" font-family="Times,serif" font-size="14.00">6M NH₃</text>
</g>
<!-- nh3_for_al&#45;&gt;aloh3_again -->
<g id="edge46" class="edge">
<title>nh3_for_al&#45;&gt;aloh3_again</title>
<path fill="none" stroke="blue" d="M915.17,-161.81C920.12,-153.44 926.18,-143.2 931.68,-133.9"/>
<polygon fill="blue" stroke="blue" points="934.85,-135.42 936.93,-125.03 928.82,-131.85 934.85,-135.42"/>
</g>
<!-- hcl_for_znnh34 -->
<g id="node48" class="node">
<title>hcl_for_znnh34</title>
<polygon fill="none" stroke="red" points="1519,-307 1457,-307 1457,-271 1519,-271 1519,-307"/>
<text text-anchor="middle" x="1488" y="-285.3" font-family="Times,serif" font-size="14.00">6M HCl</text>
</g>
<!-- hcl_for_znnh34&#45;&gt;k2zn3fecn62 -->
<g id="edge48" class="edge">
<title>hcl_for_znnh34&#45;&gt;k2zn3fecn62</title>
<path fill="none" stroke="red" d="M1466.79,-270.81C1444.66,-252.87 1409.81,-224.62 1385.11,-204.6"/>
<polygon fill="red" stroke="red" points="1387.13,-201.73 1377.16,-198.15 1382.72,-207.16 1387.13,-201.73"/>
</g>
<!-- k4fecn6 -->
<g id="node49" class="node">
<title>k4fecn6</title>
<polygon fill="none" stroke="black" points="1439.5,-307 1272.5,-307 1272.5,-271 1439.5,-271 1439.5,-307"/>
<text text-anchor="middle" x="1356" y="-285.3" font-family="Times,serif" font-size="14.00">3 drops 0.1 M K₄[Fe(CN)₆]</text>
</g>
<!-- k4fecn6&#45;&gt;k2zn3fecn62 -->
<g id="edge49" class="edge">
<title>k4fecn6&#45;&gt;k2zn3fecn62</title>
<path fill="none" stroke="black" d="M1356,-270.81C1356,-253.96 1356,-228.02 1356,-208.34"/>
<polygon fill="black" stroke="black" points="1359.5,-208.15 1356,-198.15 1352.5,-208.15 1359.5,-208.15"/>
</g>
<!-- key_soln_color -->
<g id="node51" class="node">
<title>key_soln_color</title>
<polygon fill="lime" stroke="black" points="1280.5,-982 1145.5,-982 1145.5,-944 1280.5,-944 1280.5,-982"/>
<text text-anchor="middle" x="1213" y="-966.8" font-family="Times,serif" font-size="14.00">color indicates</text>
<text text-anchor="middle" x="1213" y="-951.8" font-family="Times,serif" font-size="14.00">presence of substance</text>
</g>
<!-- key_heat -->
<g id="node52" class="node">
<title>key_heat</title>
<polygon fill="none" stroke="black" points="1127.5,-981 992.5,-981 992.5,-945 1127.5,-945 1127.5,-981"/>
<polyline fill="none" stroke="black" points="1004.5,-981 992.5,-969 "/>
<polyline fill="none" stroke="black" points="992.5,-957 1004.5,-945 "/>
<polyline fill="none" stroke="black" points="1115.5,-945 1127.5,-957 "/>
<polyline fill="none" stroke="black" points="1127.5,-969 1115.5,-981 "/>
<text text-anchor="middle" x="1060" y="-959.3" font-family="Times,serif" font-size="14.00">heat in hot water bath</text>
</g>
<!-- key_basic -->
<g id="node53" class="node">
<title>key_basic</title>
<polygon fill="none" stroke="blue" points="974,-981 920,-981 920,-945 974,-945 974,-981"/>
<text text-anchor="middle" x="947" y="-959.3" font-family="Times,serif" font-size="14.00">basic</text>
</g>
<!-- key_acidic -->
<g id="node54" class="node">
<title>key_acidic</title>
<polygon fill="none" stroke="red" points="902,-981 848,-981 848,-945 902,-945 902,-981"/>
<text text-anchor="middle" x="875" y="-959.3" font-family="Times,serif" font-size="14.00">acidic</text>
</g>
</g>
</svg>
